<svg xmlns="http://www.w3.org/2000/svg" width="5in" height="5in" viewBox="0 0 360 360"><circle cx="187.1" cy="176.2" r="114.5" fill="#fff"/><path fill="#39449b" d="M252.7 140.8a52 52 0 0 1-14.9 4 25.3 25.3 0 0 0 11.4-14.1 51.6 51.6 0 0 1-16.4 6.2 26 26 0 0 0-44.7 17.4 27.8 27.8 0 0 0 .6 5.8 74 74 0 0 1-53.3-26.6 25.2 25.2 0 0 0 8 34 25.9 25.9 0 0 1-11.7-3.2v.3a25.1 25.1 0 0 0 1.8 9.2 25.9 25.9 0 0 0 19 15.8 25.9 25.9 0 0 1-6.8.9 26.3 26.3 0 0 1-4.9-.5 25.8 25.8 0 0 0 24.1 17.7 52.2 52.2 0 0 1-32.1 10.9 40.8 40.8 0 0 1-6.1-.4 73.2 73.2 0 0 0 39.6 11.5c40.4 0 65.3-28 71.8-57.1a67.2 67.2 0 0 0 1.8-15.3c0-1.1-.1-2.2-.1-3.3a53.9 53.9 0 0 0 12.9-13.2z"/></svg>