<svg xmlns="http://www.w3.org/2000/svg" id="Layer_1" viewBox="0 0 360 360" width="360" height="360"><defs><style>.cls-1{fill:#fff}.cls-2{fill:#39449b}</style></defs><circle cx="185.17" cy="179.93" r="114.47" class="cls-1"/><path id="_Path_" d="M243.79 202.7l-.12-.07a14.7 14.7 0 0 0-3.74-1.36h-.06a32.09 32.09 0 0 1-15.27-11.14 35.36 35.36 0 0 1-5.25-9.16 4.41 4.41 0 0 1 .2-3.91c1.1-1.56 3.12-2.57 5.27-3.35a20.48 20.48 0 0 0 7.12-3.66 4.56 4.56 0 0 0 1-1.31 2.91 2.91 0 0 0 .18-.5 2.69 2.69 0 0 0-.14-1.86 5.8 5.8 0 0 0-2.5-2.38 5.35 5.35 0 0 0-4.27-.39 27.6 27.6 0 0 1-3.78 1.11h-.07a8.68 8.68 0 0 1-4.3-.1c0-.17 0-.51-.07-.94-.09-2.6.13-5.27.18-8a75.65 75.65 0 0 0-.33-12.91.13.13 0 0 1 0-.06c-1.36-7.36-6.08-13.69-12.08-17.91a30.49 30.49 0 0 0-14.78-5.25 49.62 49.62 0 0 0-5.3-.2c-7.1 0-14.45 1.91-20.21 6.41a32.6 32.6 0 0 0-9.84 12.83c-2 5.14-1.84 10.61-1.57 15.68a71.49 71.49 0 0 1 .23 10.28c0 .13 0 .16-.05.24a14.26 14.26 0 0 1-5.07-.15c-1.18-.2-2.45-.68-3.88-1.08h-.07a4.7 4.7 0 0 0-3.79.85h-.05a.18.18 0 0 1-.07 0 4 4 0 0 0-2.07 3.12 1.46 1.46 0 0 0 0 .29 3.71 3.71 0 0 0 1.3 2.11c.53.46 1 .76 1.34 1h.07c2.59 1.73 5.45 2.48 7.94 3.44 1.72.76 3.22 1.93 3.56 3.41.44 1.88-.36 4-1.4 6.1A37.34 37.34 0 0 1 140 197.71a29 29 0 0 1-8.87 4l-.12.05a5.07 5.07 0 0 0-3.16 1.85 1.26 1.26 0 0 0-.16.33 2.7 2.7 0 0 0 .5 2.49 4.56 4.56 0 0 0 1.35 1.06h.07a31.58 31.58 0 0 0 8.22 2.86 32 32 0 0 1 5.11 1.27c.07.12.22.6.55 1.4.47 1.46.69 3.17 1.23 5a1.48 1.48 0 0 0 1.11 1 3.19 3.19 0 0 0 2-.16h.15c4.44-.77 8.87-1.45 12.94-.44 4.27 1.11 8 4.05 12.16 6.57 2.77 1.75 6 3.45 9.69 3.58a66 66 0 0 0 8.23-.2h.05a14.82 14.82 0 0 0 6.47-2.21l.08-.05c4.4-2.49 8.3-5.49 12.58-7.37a20.48 20.48 0 0 1 5-.59h.06a65.07 65.07 0 0 1 10.62.54 1.09 1.09 0 0 0 .36 0 2 2 0 0 0 1.21-.67 1.81 1.81 0 0 0 .37-.75c.1-.36.2-.53 0-.24a1.2 1.2 0 0 0 .13-.28c.64-2.12 1-4 2-5.23a3.14 3.14 0 0 1 2.19-.67h.2a39.12 39.12 0 0 0 8.45-2.38h.09a7.28 7.28 0 0 0 3.42-2.28 2.42 2.42 0 0 0-.49-3.49z" class="cls-2"/></svg>