<svg xmlns="http://www.w3.org/2000/svg" id="Layer_1" width="360" height="360" viewBox="0 0 360 360"><defs><style>.cls-1{fill:#fff}.cls-2{fill:#39449b}</style></defs><circle cx="179.34" cy="180" r="114.47" class="cls-1"/><path d="M215.05 121.78h-71.43a22.52 22.52 0 0 0-22.5 22.5v71.44a22.52 22.52 0 0 0 22.5 22.5h71.43a22.53 22.53 0 0 0 22.51-22.5v-71.44a22.53 22.53 0 0 0-22.51-22.5zm6.46 13.42h2.57v19.73l-19.67.07-.07-19.74zm-58.79 32.85a20.43 20.43 0 0 1 33.23 0 20.89 20.89 0 0 1 1.24 2 20.5 20.5 0 1 1-35.7 0 22 22 0 0 1 1.23-2zm63.49 47.67a11.16 11.16 0 0 1-11.16 11.16h-71.43a11.16 11.16 0 0 1-11.16-11.16v-47.67h17.38a29 29 0 0 0-1.12 3.29 31.29 31.29 0 0 0-1.22 8.66 31.84 31.84 0 1 0 63.68 0 31.42 31.42 0 0 0-1.23-8.67 34.24 34.24 0 0 0-1.12-3.28h17.38v47.67z" class="cls-2"/></svg>