<svg xmlns="http://www.w3.org/2000/svg" id="Layer_1" width="360" height="360" viewBox="0 0 360 360"><defs><style>.cls-1{fill:#fff}.cls-2{fill:#39449b}</style></defs><circle cx="187.05" cy="176.16" r="114.47" class="cls-1"/><path id="_Path_" d="M252.68 140.79a51.84 51.84 0 0 1-14.84 4 25.58 25.58 0 0 0 11.37-14.08 52.17 52.17 0 0 1-16.43 6.18 26 26 0 0 0-18.86-8 25.5 25.5 0 0 0-25.19 31.26 73.8 73.8 0 0 1-53.29-26.6 25.09 25.09 0 0 0-3.5 12.8 25.37 25.37 0 0 0 11.5 21.18 26.15 26.15 0 0 1-11.71-3.18v.31a25.06 25.06 0 0 0 1.77 9.23 25.83 25.83 0 0 0 19 15.74 26.78 26.78 0 0 1-6.82.89 26.08 26.08 0 0 1-4.86-.46 25.83 25.83 0 0 0 24.15 17.67 52.31 52.31 0 0 1-32.11 10.9 54.67 54.67 0 0 1-6.17-.35 74.1 74.1 0 0 0 39.63 11.43c40.42 0 65.26-28 71.81-57a69.82 69.82 0 0 0 1.76-15.36c0-1.1 0-2.2-.07-3.29a51.75 51.75 0 0 0 12.86-13.27z" class="cls-2"/></svg>