<svg xmlns="http://www.w3.org/2000/svg" width="5in" height="5in" viewBox="0 0 360 360"><circle cx="179.3" cy="180" r="114.5" fill="#fff"/><path fill="#39449b" d="M215 121.8h-71.4a22.5 22.5 0 0 0-22.5 22.5v71.4a22.5 22.5 0 0 0 22.5 22.5H215a22.6 22.6 0 0 0 22.6-22.5v-71.4a22.6 22.6 0 0 0-22.6-22.5zm6.5 13.4h2.6v19.7h-19.7v-19.6zm-58.8 32.9a20.4 20.4 0 0 1 33.3 0l1.2 1.9a20.1 20.1 0 0 1 2.6 10 20.5 20.5 0 0 1-41 0 20.2 20.2 0 0 1 2.7-10zm63.5 47.6a11.2 11.2 0 0 1-11.2 11.2h-71.4a11.2 11.2 0 0 1-11.1-11.2v-47.6h17.3a30.1 30.1 0 0 0-1.1 3.2 31.8 31.8 0 0 0 30.6 40.5 31.8 31.8 0 0 0 31.9-31.8 35.8 35.8 0 0 0-1.2-8.7 30.3 30.3 0 0 0-1.2-3.2h17.4v47.6z"/></svg>