<svg xmlns="http://www.w3.org/2000/svg"><symbol id="icon-facebook" viewBox="0 0 360 360"><circle cx="180" cy="177.3" r="114.5" fill="#fff"/><path fill="#39449b" d="M190 150.3v-10c0-4.9 3.2-6 5.5-6h14.1v-21.5h-19.4c-21.4 0-26.3 16-26.3 26.3v11.3h-12.4v25H164V238h25v-62.7h18.6l.9-9.8 1.4-15.2z"/></symbol><symbol id="icon-twitter" viewBox="0 0 360 360"><circle cx="187.1" cy="176.2" r="114.5" fill="#fff"/><path fill="#39449b" d="M252.7 140.8a52 52 0 0 1-14.9 4 25.3 25.3 0 0 0 11.4-14.1 51.6 51.6 0 0 1-16.4 6.2 26 26 0 0 0-44.7 17.4 27.8 27.8 0 0 0 .6 5.8 74 74 0 0 1-53.3-26.6 25.2 25.2 0 0 0 8 34 25.9 25.9 0 0 1-11.7-3.2v.3a25.1 25.1 0 0 0 1.8 9.2 25.9 25.9 0 0 0 19 15.8 25.9 25.9 0 0 1-6.8.9 26.3 26.3 0 0 1-4.9-.5 25.8 25.8 0 0 0 24.1 17.7 52.2 52.2 0 0 1-32.1 10.9 40.8 40.8 0 0 1-6.1-.4 73.2 73.2 0 0 0 39.6 11.5c40.4 0 65.3-28 71.8-57.1a67.2 67.2 0 0 0 1.8-15.3c0-1.1-.1-2.2-.1-3.3a53.9 53.9 0 0 0 12.9-13.2z"/></symbol><symbol id="icon-snap" viewBox="0 0 360 360"><circle cx="185.2" cy="179.9" r="114.5" fill="#fff"/><path fill="#39449b" d="M243.8 202.7h-.1c-1.4-.9-2.9-1-3.8-1.4a32 32 0 0 1-15.3-11.1 33.5 33.5 0 0 1-5.2-9.2 4.4 4.4 0 0 1 .2-3.9c1.1-1.6 3.1-2.6 5.2-3.4h.1a19.4 19.4 0 0 0 7.1-3.7 3.6 3.6 0 0 0 1.1-1.3c0-.2.1-.3.1-.5a2.5 2.5 0 0 0-.1-1.9 6.3 6.3 0 0 0-2.5-2.4 5.4 5.4 0 0 0-4.3-.3c-1.5.4-2.7.9-3.8 1.1h-.1a8.8 8.8 0 0 1-4.3-.1v-.9c-.1-2.6.1-5.3.2-8.1a70.1 70.1 0 0 0-.4-12.9c-1.3-7.3-6.1-13.7-12-17.9a31.8 31.8 0 0 0-14.8-5.2 31.7 31.7 0 0 0-5.3-.2c-7.1 0-14.5 1.9-20.2 6.4a31.7 31.7 0 0 0-9.9 12.8c-2 5.2-1.8 10.6-1.6 15.7a72.1 72.1 0 0 1 .3 10.3v.2a14.7 14.7 0 0 1-5.1-.1c-1.2-.2-2.4-.7-3.9-1.1a4.9 4.9 0 0 0-3.8.8.1.1 0 0 1-.1.1 3.8 3.8 0 0 0-2.1 3.1v.3a4.4 4.4 0 0 0 1.3 2.1l1.3 1h.1c2.6 1.7 5.5 2.5 8 3.5 1.7.7 3.2 1.9 3.5 3.4s-.3 4-1.4 6.1a36.5 36.5 0 0 1-12.2 13.7 30.8 30.8 0 0 1-8.8 4.1h-.2c-.6.3-2.1.4-3.1 1.9l-.2.3a3 3 0 0 0 .5 2.5 5.3 5.3 0 0 0 1.4 1h.1a28.5 28.5 0 0 0 8.2 2.8 41.8 41.8 0 0 1 5.1 1.3c.1.1.2.6.6 1.4s.6 3.2 1.2 5a1.4 1.4 0 0 0 1.1 1 3.7 3.7 0 0 0 2-.2h.1c4.5-.8 8.9-1.4 13-.4 4.2 1.1 8 4 12.1 6.5h.1c2.7 1.7 5.9 3.4 9.6 3.5h.1a55.8 55.8 0 0 0 8.2-.2 13.6 13.6 0 0 0 6.5-2.2h.1c4.4-2.5 8.3-5.5 12.6-7.4a18.8 18.8 0 0 1 5.1-.6 74.5 74.5 0 0 1 10.6.5h.4a1.6 1.6 0 0 0 1.2-.6 2.8 2.8 0 0 0 .4-.8c.1-.4.2-.5 0-.2a.4.4 0 0 0 .1-.3c.7-2.1 1-4 2.1-5.2a2.8 2.8 0 0 1 2.2-.7h.2a43.2 43.2 0 0 0 8.4-2.4h.1a6.9 6.9 0 0 0 3.4-2.3 2.4 2.4 0 0 0-.7-3.3z"/></symbol><symbol id="icon-insta" viewBox="0 0 360 360"><circle cx="179.3" cy="180" r="114.5" fill="#fff"/><path fill="#39449b" d="M215 121.8h-71.4a22.5 22.5 0 0 0-22.5 22.5v71.4a22.5 22.5 0 0 0 22.5 22.5H215a22.6 22.6 0 0 0 22.6-22.5v-71.4a22.6 22.6 0 0 0-22.6-22.5zm6.5 13.4h2.6v19.7h-19.7v-19.6zm-58.8 32.9a20.4 20.4 0 0 1 33.3 0l1.2 1.9a20.1 20.1 0 0 1 2.6 10 20.5 20.5 0 0 1-41 0 20.2 20.2 0 0 1 2.7-10zm63.5 47.6a11.2 11.2 0 0 1-11.2 11.2h-71.4a11.2 11.2 0 0 1-11.1-11.2v-47.6h17.3a30.1 30.1 0 0 0-1.1 3.2 31.8 31.8 0 0 0 30.6 40.5 31.8 31.8 0 0 0 31.9-31.8 35.8 35.8 0 0 0-1.2-8.7 30.3 30.3 0 0 0-1.2-3.2h17.4v47.6z"/></symbol></svg>