<svg xmlns="http://www.w3.org/2000/svg" width="5in" height="5in" viewBox="0 0 360 360"><circle cx="185.2" cy="179.9" r="114.5" fill="#fff"/><path fill="#39449b" d="M243.8 202.7h-.1c-1.4-.9-2.9-1-3.8-1.4a32 32 0 0 1-15.3-11.1 33.5 33.5 0 0 1-5.2-9.2 4.4 4.4 0 0 1 .2-3.9c1.1-1.6 3.1-2.6 5.2-3.4h.1a19.4 19.4 0 0 0 7.1-3.7 3.6 3.6 0 0 0 1.1-1.3c0-.2.1-.3.1-.5a2.5 2.5 0 0 0-.1-1.9 6.3 6.3 0 0 0-2.5-2.4 5.4 5.4 0 0 0-4.3-.3c-1.5.4-2.7.9-3.8 1.1h-.1a8.8 8.8 0 0 1-4.3-.1v-.9c-.1-2.6.1-5.3.2-8.1a70.1 70.1 0 0 0-.4-12.9c-1.3-7.3-6.1-13.7-12-17.9a31.8 31.8 0 0 0-14.8-5.2 31.7 31.7 0 0 0-5.3-.2c-7.1 0-14.5 1.9-20.2 6.4a31.7 31.7 0 0 0-9.9 12.8c-2 5.2-1.8 10.6-1.6 15.7a72.1 72.1 0 0 1 .3 10.3v.2a14.7 14.7 0 0 1-5.1-.1c-1.2-.2-2.4-.7-3.9-1.1a4.9 4.9 0 0 0-3.8.8.1.1 0 0 1-.1.1 3.8 3.8 0 0 0-2.1 3.1v.3a4.4 4.4 0 0 0 1.3 2.1l1.3 1h.1c2.6 1.7 5.5 2.5 8 3.5 1.7.7 3.2 1.9 3.5 3.4s-.3 4-1.4 6.1a36.5 36.5 0 0 1-12.2 13.7 30.8 30.8 0 0 1-8.8 4.1h-.2c-.6.3-2.1.4-3.1 1.9l-.2.3a3 3 0 0 0 .5 2.5 5.3 5.3 0 0 0 1.4 1h.1a28.5 28.5 0 0 0 8.2 2.8 41.8 41.8 0 0 1 5.1 1.3c.1.1.2.6.6 1.4s.6 3.2 1.2 5a1.4 1.4 0 0 0 1.1 1 3.7 3.7 0 0 0 2-.2h.1c4.5-.8 8.9-1.4 13-.4 4.2 1.1 8 4 12.1 6.5h.1c2.7 1.7 5.9 3.4 9.6 3.5h.1a55.8 55.8 0 0 0 8.2-.2 13.6 13.6 0 0 0 6.5-2.2h.1c4.4-2.5 8.3-5.5 12.6-7.4a18.8 18.8 0 0 1 5.1-.6 74.5 74.5 0 0 1 10.6.5h.4a1.6 1.6 0 0 0 1.2-.6 2.8 2.8 0 0 0 .4-.8c.1-.4.2-.5 0-.2a.4.4 0 0 0 .1-.3c.7-2.1 1-4 2.1-5.2a2.8 2.8 0 0 1 2.2-.7h.2a43.2 43.2 0 0 0 8.4-2.4h.1a6.9 6.9 0 0 0 3.4-2.3 2.4 2.4 0 0 0-.7-3.3z"/></svg>