<svg id="Layer_1" data-name="Layer 1" xmlns="http://www.w3.org/2000/svg" viewBox="0 0 16 16"><defs><style>.cls-1{fill:#bd9e61;}.cls-2{fill:#754c29;}.cls-3{fill:#e0cc00;}.cls-4{fill:#fff;}</style></defs><title>logo-16</title><path class="cls-1" d="M1.88,12.08H14.2a1,1,0,0,1,1,1V14a1.93,1.93,0,0,1-1.93,1.93H2.76A1.93,1.93,0,0,1,.83,14v-.84a1,1,0,0,1,1-1Z"/><rect class="cls-2" x="1.18" y="8.81" width="13.59" height="2.56" rx="1" ry="1"/><path class="cls-1" d="M3.39,3.32h8.93a2.74,2.74,0,0,1,2.74,2.74V7.12a1,1,0,0,1-1,1H1.65a1,1,0,0,1-1-1V6.06A2.74,2.74,0,0,1,3.39,3.32Z"/><polygon class="cls-3" points="4.84 0 3.37 2.54 6.31 2.54 4.84 0"/><polygon class="cls-3" points="6.81 0 5.35 2.54 8.28 2.54 6.81 0"/><polygon class="cls-3" points="8.63 0 7.17 2.54 10.1 2.54 8.63 0"/><polygon class="cls-3" points="10.6 0 9.13 2.54 12.06 2.54 10.6 0"/><ellipse class="cls-4" cx="4.32" cy="3.91" rx="0.52" ry="0.14"/><ellipse class="cls-4" cx="6.1" cy="3.8" rx="0.14" ry="0.52" transform="translate(-0.1 7.44) rotate(-62.34)"/><ellipse class="cls-4" cx="5.35" cy="4.62" rx="0.14" ry="0.52" transform="translate(-0.19 9.02) rotate(-79.25)"/><ellipse class="cls-4" cx="8.63" cy="4.37" rx="0.52" ry="0.14" transform="translate(-0.54 1.28) rotate(-8.2)"/><ellipse class="cls-4" cx="7.6" cy="4.07" rx="0.52" ry="0.14" transform="translate(0.83 9.4) rotate(-66.37)"/><ellipse class="cls-4" cx="11.27" cy="4.07" rx="0.52" ry="0.14" transform="translate(-0.43 6.66) rotate(-32.34)"/><ellipse class="cls-4" cx="9.9" cy="3.91" rx="0.14" ry="0.52" transform="translate(3.17 12.15) rotate(-72.34)"/><ellipse class="cls-4" cx="6.86" cy="4.95" rx="0.52" ry="0.14" transform="translate(-0.64 1.03) rotate(-8.2)"/><ellipse class="cls-4" cx="9.58" cy="4.8" rx="0.52" ry="0.14" transform="translate(-0.91 2.6) rotate(-14.78)"/><ellipse class="cls-4" cx="11.27" cy="4.95" rx="0.14" ry="0.52" transform="translate(4.83 15.44) rotate(-82.19)"/></svg>