<svg id="Layer_1" data-name="Layer 1" xmlns="http://www.w3.org/2000/svg" viewBox="0 0 64 64.08"><defs><style>.cls-1{fill:#bd9e61;}.cls-2{fill:#754c29;}.cls-3{fill:#e8a423;}.cls-4{fill:#e0cc00;}.cls-5{fill:none;stroke:#009444;stroke-linecap:round;stroke-miterlimit:10;stroke-width:2px;}.cls-6{fill:#fff;}</style></defs><title>logo-64</title><path class="cls-1" d="M14.08,51.55h39.1a4.16,4.16,0,0,1,4.16,4.16v.7a7.67,7.67,0,0,1-7.67,7.67H17.6a7.67,7.67,0,0,1-7.67-7.67v-.7a4.16,4.16,0,0,1,4.16-4.16Z"/><rect class="cls-2" x="11.06" y="41.81" width="44.7" height="8.43" rx="3.98" ry="3.98"/><rect class="cls-3" x="12.9" y="38.61" width="40.82" height="1.86" rx="0.88" ry="0.88"/><path class="cls-1" d="M20.24,14.7h25.6a10.9,10.9,0,0,1,10.9,10.9v.88a4,4,0,0,1-4,4H13.32a4,4,0,0,1-4-4V25.6a10.9,10.9,0,0,1,10.9-10.9Z"/><polygon class="cls-4" points="23.11 3.76 18.28 12.11 27.93 12.11 23.11 3.76"/><polygon class="cls-4" points="29.6 3.76 24.78 12.11 34.42 12.11 29.6 3.76"/><polygon class="cls-4" points="35.59 3.76 30.77 12.11 40.41 12.11 35.59 3.76"/><polygon class="cls-4" points="42.05 3.76 37.23 12.11 46.88 12.11 42.05 3.76"/><circle class="cls-4" cx="23.11" cy="1.43" r="1.43"/><circle class="cls-4" cx="29.6" cy="1.43" r="1.43"/><circle class="cls-4" cx="35.59" cy="1.43" r="1.43"/><circle class="cls-4" cx="42.05" cy="1.43" r="1.43"/><path class="cls-5" d="M14.29,34.35s3.35-3.54,6.9,0,5.89-.12,5.89-.12"/><path class="cls-5" d="M27,34.35s3.35-3.54,6.89,0,5.89-.12,5.89-.12"/><path class="cls-5" d="M39.75,34.25s3.35-3.55,6.9,0,5.88-.13,5.88-.13"/><ellipse class="cls-6" cx="21.38" cy="16.61" rx="1.72" ry="0.46"/><ellipse class="cls-6" cx="27.25" cy="16.25" rx="0.46" ry="1.72" transform="translate(0.2 32.84) rotate(-62.34)"/><ellipse class="cls-6" cx="24.78" cy="18.97" rx="0.46" ry="1.72" transform="translate(1.52 39.77) rotate(-79.25)"/><ellipse class="cls-6" cx="35.59" cy="18.13" rx="1.72" ry="0.46" transform="translate(-2.22 5.26) rotate(-8.2)"/><ellipse class="cls-6" cx="32.19" cy="17.14" rx="1.72" ry="0.46" transform="translate(3.59 39.76) rotate(-66.37)"/><ellipse class="cls-6" cx="44.25" cy="17.14" rx="1.72" ry="0.46" transform="translate(-2.3 26.33) rotate(-32.34)"/><ellipse class="cls-6" cx="39.75" cy="16.61" rx="0.46" ry="1.72" transform="translate(11.86 49.45) rotate(-72.34)"/><ellipse class="cls-6" cx="29.76" cy="20.05" rx="1.72" ry="0.46" transform="translate(-2.56 4.45) rotate(-8.2)"/><ellipse class="cls-6" cx="38.71" cy="19.56" rx="1.72" ry="0.46" transform="translate(-3.71 10.52) rotate(-14.78)"/><ellipse class="cls-6" cx="44.25" cy="20.05" rx="0.46" ry="1.72" transform="translate(18.37 61.17) rotate(-82.19)"/></svg>