<svg id="Layer_1" data-name="Layer 1" xmlns="http://www.w3.org/2000/svg" viewBox="0 0 256 256"><defs><style>.cls-1{fill:#bd9e61;}.cls-2{fill:#754c29;}.cls-3{fill:#e8a423;}.cls-4{fill:#e0cc00;}.cls-5{fill:none;stroke:#009444;stroke-linecap:round;stroke-miterlimit:10;stroke-width:7px;}.cls-6{fill:#fff;}</style></defs><title>logo-256</title><path class="cls-1" d="M57.25,206H214.48A16.09,16.09,0,0,1,230.57,222v4.25A29.71,29.71,0,0,1,200.86,256h-130a29.71,29.71,0,0,1-29.71-29.71V222A16.09,16.09,0,0,1,57.25,206Z"/><rect class="cls-2" x="45.7" y="167.03" width="178.59" height="33.7" rx="16.11" ry="16.11"/><rect class="cls-3" x="53.03" y="154.23" width="163.09" height="7.41" rx="3.55" ry="3.55"/><path class="cls-1" d="M83,58.71H184.1a44.12,44.12,0,0,1,44.12,44.12v2.74a16.09,16.09,0,0,1-16.09,16.09H54.91a16.09,16.09,0,0,1-16.09-16.09v-2.74A44.12,44.12,0,0,1,83,58.71Z"/><polygon class="cls-4" points="93.82 15.01 74.55 48.39 113.09 48.39 93.82 15.01"/><polygon class="cls-4" points="119.76 15.01 100.49 48.39 139.03 48.39 119.76 15.01"/><polygon class="cls-4" points="143.7 15.01 124.43 48.39 162.97 48.39 143.7 15.01"/><polygon class="cls-4" points="169.52 15.01 150.25 48.39 188.79 48.39 169.52 15.01"/><circle class="cls-4" cx="93.82" cy="5.72" r="5.72"/><circle class="cls-4" cx="119.76" cy="5.72" r="5.72"/><circle class="cls-4" cx="143.7" cy="5.72" r="5.72"/><circle class="cls-4" cx="169.52" cy="5.72" r="5.72"/><path class="cls-5" d="M58.61,137.24s13.38-14.17,27.55,0,23.52-.5,23.52-.5"/><path class="cls-5" d="M109.25,137.24s13.38-14.17,27.55,0,23.51-.5,23.51-.5"/><path class="cls-5" d="M160.31,136.81s13.38-14.17,27.55,0,23.52-.5,23.52-.5"/><ellipse class="cls-6" cx="86.93" cy="66.37" rx="6.89" ry="1.84"/><ellipse class="cls-6" cx="110.37" cy="64.94" rx="1.84" ry="6.89" transform="translate(1.61 132.54) rotate(-62.34)"/><ellipse class="cls-6" cx="100.49" cy="75.79" rx="1.84" ry="6.89" transform="translate(7.29 160.39) rotate(-79.25)"/><ellipse class="cls-6" cx="143.7" cy="72.45" rx="6.89" ry="1.84" transform="translate(-8.87 21.25) rotate(-8.2)"/><ellipse class="cls-6" cx="130.09" cy="68.46" rx="6.89" ry="1.84" transform="translate(15.23 160.21) rotate(-66.37)"/><ellipse class="cls-6" cx="178.29" cy="68.46" rx="6.89" ry="1.84" transform="translate(-8.97 105.99) rotate(-32.34)"/><ellipse class="cls-6" cx="160.31" cy="66.37" rx="1.84" ry="6.89" transform="matrix(0.3, -0.95, 0.95, 0.3, 48.44, 199)"/><ellipse class="cls-6" cx="120.38" cy="80.1" rx="6.89" ry="1.84" transform="translate(-10.2 18) rotate(-8.2)"/><ellipse class="cls-6" cx="156.17" cy="78.12" rx="6.89" ry="1.84" transform="translate(-14.76 42.42) rotate(-14.78)"/><ellipse class="cls-6" cx="178.29" cy="80.1" rx="1.84" ry="6.89" transform="translate(74.71 245.85) rotate(-82.19)"/></svg>