<svg id="Layer_1" data-name="Layer 1" xmlns="http://www.w3.org/2000/svg" viewBox="0 0 32 32"><defs><style>.cls-1{fill:#bd9e61;}.cls-2{fill:#754c29;}.cls-3{fill:#e8a423;}.cls-4{fill:#e0cc00;}.cls-5{fill:none;stroke:#009444;stroke-linecap:round;stroke-miterlimit:10;}.cls-6{fill:#fff;}</style></defs><title>logo-32</title><path class="cls-1" d="M7.4,25.72H26.62a2.19,2.19,0,0,1,2.19,2.19v0a4,4,0,0,1-4,4H9.25a4,4,0,0,1-4-4v0A2.19,2.19,0,0,1,7.4,25.72Z"/><rect class="cls-2" x="5.77" y="20.87" width="22.26" height="4.2" rx="2.1" ry="2.1"/><rect class="cls-3" x="6.68" y="19.27" width="20.33" height="0.92" rx="0.46" ry="0.46"/><path class="cls-1" d="M10.66,7.36H22.77a5.75,5.75,0,0,1,5.75,5.75v0a2.1,2.1,0,0,1-2.1,2.1H7a2.1,2.1,0,0,1-2.1-2.1v0A5.75,5.75,0,0,1,10.66,7.36Z"/><polygon class="cls-4" points="11.77 1.91 9.37 6.08 14.17 6.08 11.77 1.91"/><polygon class="cls-4" points="15 1.91 12.6 6.08 17.41 6.08 15 1.91"/><polygon class="cls-4" points="17.99 1.91 15.58 6.08 20.39 6.08 17.99 1.91"/><polygon class="cls-4" points="21.2 1.91 18.8 6.08 23.61 6.08 21.2 1.91"/><circle class="cls-4" cx="11.77" cy="0.76" r="0.71"/><circle class="cls-4" cx="15" cy="0.76" r="0.71"/><circle class="cls-4" cx="17.99" cy="0.76" r="0.71"/><circle class="cls-4" cx="21.2" cy="0.76" r="0.71"/><path class="cls-5" d="M7.38,17.15a2.32,2.32,0,0,1,3.43,0c1.77,1.77,2.94-.06,2.94-.06"/><path class="cls-5" d="M13.69,17.15a2.33,2.33,0,0,1,3.44,0c1.76,1.77,2.93-.06,2.93-.06"/><path class="cls-5" d="M20.06,17.1a2.32,2.32,0,0,1,3.43,0c1.77,1.77,2.93-.06,2.93-.06"/><ellipse class="cls-6" cx="10.91" cy="8.32" rx="0.86" ry="0.23"/><ellipse class="cls-6" cx="13.83" cy="8.14" rx="0.23" ry="0.86" transform="translate(0.2 16.61) rotate(-62.34)"/><ellipse class="cls-6" cx="12.6" cy="9.49" rx="0.23" ry="0.86" transform="translate(0.92 20.1) rotate(-79.25)"/><ellipse class="cls-6" cx="17.99" cy="9.07" rx="0.86" ry="0.23" transform="translate(-1.11 2.66) rotate(-8.2)"/><ellipse class="cls-6" cx="16.29" cy="8.58" rx="0.86" ry="0.23" transform="translate(1.9 20.06) rotate(-66.37)"/><ellipse class="cls-6" cx="22.3" cy="8.58" rx="0.86" ry="0.23" transform="translate(-1.13 13.26) rotate(-32.34)"/><ellipse class="cls-6" cx="20.06" cy="8.32" rx="0.23" ry="0.86" transform="translate(6.05 24.91) rotate(-72.34)"/><ellipse class="cls-6" cx="15.08" cy="10.03" rx="0.86" ry="0.23" transform="translate(-1.28 2.25) rotate(-8.2)"/><ellipse class="cls-6" cx="19.54" cy="9.78" rx="0.86" ry="0.23" transform="translate(-1.85 5.31) rotate(-14.78)"/><ellipse class="cls-6" cx="22.3" cy="10.03" rx="0.23" ry="0.86" transform="translate(9.33 30.76) rotate(-82.19)"/></svg>