<svg id="Layer_1" data-name="Layer 1" xmlns="http://www.w3.org/2000/svg" viewBox="0 0 16 16"><defs><style>.cls-1{fill:#bd9e61;}.cls-2{fill:#754c29;}.cls-3{fill:#e8a423;}.cls-4{fill:#e0cc00;}.cls-5{fill:none;stroke:#009444;stroke-linecap:round;stroke-miterlimit:10;stroke-width:0.5px;}.cls-6{fill:#fff;}</style></defs><title>logo-16</title><path class="cls-1" d="M3.5,12.78h9.68a1,1,0,0,1,1,1V14a1.93,1.93,0,0,1-1.93,1.93H4.38A1.93,1.93,0,0,1,2.46,14v-.14a1,1,0,0,1,1-1Z"/><rect class="cls-2" x="2.74" y="10.36" width="11.09" height="2.09" rx="1" ry="1"/><rect class="cls-3" x="3.19" y="9.56" width="10.13" height="0.46" rx="0.22" ry="0.22"/><path class="cls-1" d="M5,3.63h6.29a2.74,2.74,0,0,1,2.74,2.74v.17a1,1,0,0,1-1,1H3.31a1,1,0,0,1-1-1V6.37A2.74,2.74,0,0,1,5,3.63Z"/><polygon class="cls-4" points="5.73 0.92 4.53 2.99 6.92 2.99 5.73 0.92"/><polygon class="cls-4" points="7.34 0.92 6.14 2.99 8.53 2.99 7.34 0.92"/><polygon class="cls-4" points="8.82 0.92 7.63 2.99 10.02 2.99 8.82 0.92"/><polygon class="cls-4" points="10.43 0.92 9.23 2.99 11.62 2.99 10.43 0.92"/><circle class="cls-4" cx="5.73" cy="0.34" r="0.36"/><circle class="cls-4" cx="7.34" cy="0.34" r="0.36"/><circle class="cls-4" cx="8.82" cy="0.34" r="0.36"/><circle class="cls-4" cx="10.43" cy="0.34" r="0.36"/><path class="cls-5" d="M3.54,8.51a1.16,1.16,0,0,1,1.71,0c.88.88,1.46,0,1.46,0"/><path class="cls-5" d="M6.68,8.51a1.17,1.17,0,0,1,1.72,0c.88.88,1.46,0,1.46,0"/><path class="cls-5" d="M9.86,8.48a1.16,1.16,0,0,1,1.71,0c.88.88,1.46,0,1.46,0"/><ellipse class="cls-6" cx="5.3" cy="4.11" rx="0.43" ry="0.11"/><ellipse class="cls-6" cx="6.75" cy="4.02" rx="0.11" ry="0.43" transform="translate(0.06 8.13) rotate(-62.34)"/><ellipse class="cls-6" cx="6.14" cy="4.69" rx="0.11" ry="0.43" transform="translate(0.39 9.85) rotate(-79.25)"/><ellipse class="cls-6" cx="8.82" cy="4.48" rx="0.43" ry="0.11" transform="translate(-0.55 1.31) rotate(-8.2)"/><ellipse class="cls-6" cx="7.98" cy="4.24" rx="0.43" ry="0.11" transform="translate(0.9 9.85) rotate(-66.37)"/><ellipse class="cls-6" cx="10.97" cy="4.24" rx="0.43" ry="0.11" transform="matrix(0.84, -0.53, 0.53, 0.84, -0.56, 6.53)"/><ellipse class="cls-6" cx="9.86" cy="4.11" rx="0.11" ry="0.43" transform="translate(2.95 12.25) rotate(-72.34)"/><ellipse class="cls-6" cx="7.38" cy="4.96" rx="0.43" ry="0.11" transform="translate(-0.63 1.1) rotate(-8.2)"/><ellipse class="cls-6" cx="9.6" cy="4.84" rx="0.43" ry="0.11" transform="translate(-0.92 2.61) rotate(-14.78)"/><ellipse class="cls-6" cx="10.97" cy="4.96" rx="0.11" ry="0.43" transform="translate(4.57 15.16) rotate(-82.19)"/></svg>