<svg xmlns="http://www.w3.org/2000/svg"><symbol id="icon-cart" viewBox="0 0 360 360"><defs><style>.cls-1,.cls-3{fill:none}.cls-1,.cls-2,.cls-3{stroke:#939598;stroke-linecap:round;stroke-linejoin:round}.cls-1,.cls-2{stroke-width:6px}.cls-2{fill:#ef9c60}.cls-3{stroke-width:7px}</style></defs><path d="M266.05 99.93h-27.96l-6.7 21.73-31.43 101.97H98.29" class="cls-1"/><path d="M92.36 204.14L62.7 124.5h167.81l-24.54 79.64H92.36z" class="cls-2"/><circle cx="187.47" cy="244.78" r="11.18" class="cls-3"/><circle cx="111.28" cy="244.78" r="11.18" class="cls-3"/><path d="M307.83 149.31h-59.62m38.88 29.03h-46.66m28 28.51h-37.92" class="cls-1"/></symbol><symbol id="icon-facebook" viewBox="0 0 360 360"><defs><style>.cls-1{fill:#fff}.cls-2{fill:#39449b}</style></defs><circle cx="180" cy="177.32" r="114.47" class="cls-1"/><path id="_Path_" d="M190 150.29v-10c0-4.88 3.25-6 5.54-6h14v-21.46l-19.34-.09c-21.46 0-26.34 16-26.34 26.24v11.31h-12.39v25H164v62.61h25v-62.58h18.58l.9-9.83 1.38-15.2z" class="cls-2"/></symbol><symbol id="icon-twitter" viewBox="0 0 360 360"><defs><style>.cls-1{fill:#fff}.cls-2{fill:#39449b}</style></defs><circle cx="187.05" cy="176.16" r="114.47" class="cls-1"/><path id="_Path_" d="M252.68 140.79a51.84 51.84 0 0 1-14.84 4 25.58 25.58 0 0 0 11.37-14.08 52.17 52.17 0 0 1-16.43 6.18 26 26 0 0 0-18.86-8 25.5 25.5 0 0 0-25.19 31.26 73.8 73.8 0 0 1-53.29-26.6 25.09 25.09 0 0 0-3.5 12.8 25.37 25.37 0 0 0 11.5 21.18 26.15 26.15 0 0 1-11.71-3.18v.31a25.06 25.06 0 0 0 1.77 9.23 25.83 25.83 0 0 0 19 15.74 26.78 26.78 0 0 1-6.82.89 26.08 26.08 0 0 1-4.86-.46 25.83 25.83 0 0 0 24.15 17.67 52.31 52.31 0 0 1-32.11 10.9 54.67 54.67 0 0 1-6.17-.35 74.1 74.1 0 0 0 39.63 11.43c40.42 0 65.26-28 71.81-57a69.82 69.82 0 0 0 1.76-15.36c0-1.1 0-2.2-.07-3.29a51.75 51.75 0 0 0 12.86-13.27z" class="cls-2"/></symbol><symbol id="icon-hamburger" viewBox="0 0 360 360"><defs><style>.cls-1{fill:#ee9c60}</style></defs><rect width="236.84" height="24.72" x="61.58" y="106.05" class="cls-1" rx="12.36" ry="12.36"/><rect width="236.84" height="24.72" x="61.58" y="150.33" class="cls-1" rx="12.36" ry="12.36"/><rect width="236.84" height="24.72" x="61.58" y="194.61" class="cls-1" rx="12.36" ry="12.36"/></symbol><symbol id="icon-insta" viewBox="0 0 360 360"><defs><style>.cls-1{fill:#fff}.cls-2{fill:#39449b}</style></defs><circle cx="179.34" cy="180" r="114.47" class="cls-1"/><path d="M215.05 121.78h-71.43a22.52 22.52 0 0 0-22.5 22.5v71.44a22.52 22.52 0 0 0 22.5 22.5h71.43a22.53 22.53 0 0 0 22.51-22.5v-71.44a22.53 22.53 0 0 0-22.51-22.5zm6.46 13.42h2.57v19.73l-19.67.07-.07-19.74zm-58.79 32.85a20.43 20.43 0 0 1 33.23 0 20.89 20.89 0 0 1 1.24 2 20.5 20.5 0 1 1-35.7 0 22 22 0 0 1 1.23-2zm63.49 47.67a11.16 11.16 0 0 1-11.16 11.16h-71.43a11.16 11.16 0 0 1-11.16-11.16v-47.67h17.38a29 29 0 0 0-1.12 3.29 31.29 31.29 0 0 0-1.22 8.66 31.84 31.84 0 1 0 63.68 0 31.42 31.42 0 0 0-1.23-8.67 34.24 34.24 0 0 0-1.12-3.28h17.38v47.67z" class="cls-2"/></symbol><symbol id="icon-snap" viewBox="0 0 360 360"><defs><style>.cls-1{fill:#fff}.cls-2{fill:#39449b}</style></defs><circle cx="185.17" cy="179.93" r="114.47" class="cls-1"/><path id="_Path_" d="M243.79 202.7l-.12-.07a14.7 14.7 0 0 0-3.74-1.36h-.06a32.09 32.09 0 0 1-15.27-11.14 35.36 35.36 0 0 1-5.25-9.16 4.41 4.41 0 0 1 .2-3.91c1.1-1.56 3.12-2.57 5.27-3.35a20.48 20.48 0 0 0 7.12-3.66 4.56 4.56 0 0 0 1-1.31 2.91 2.91 0 0 0 .18-.5 2.69 2.69 0 0 0-.14-1.86 5.8 5.8 0 0 0-2.5-2.38 5.35 5.35 0 0 0-4.27-.39 27.6 27.6 0 0 1-3.78 1.11h-.07a8.68 8.68 0 0 1-4.3-.1c0-.17 0-.51-.07-.94-.09-2.6.13-5.27.18-8a75.65 75.65 0 0 0-.33-12.91.13.13 0 0 1 0-.06c-1.36-7.36-6.08-13.69-12.08-17.91a30.49 30.49 0 0 0-14.78-5.25 49.62 49.62 0 0 0-5.3-.2c-7.1 0-14.45 1.91-20.21 6.41a32.6 32.6 0 0 0-9.84 12.83c-2 5.14-1.84 10.61-1.57 15.68a71.49 71.49 0 0 1 .23 10.28c0 .13 0 .16-.05.24a14.26 14.26 0 0 1-5.07-.15c-1.18-.2-2.45-.68-3.88-1.08h-.07a4.7 4.7 0 0 0-3.79.85h-.05a.18.18 0 0 1-.07 0 4 4 0 0 0-2.07 3.12 1.46 1.46 0 0 0 0 .29 3.71 3.71 0 0 0 1.3 2.11c.53.46 1 .76 1.34 1h.07c2.59 1.73 5.45 2.48 7.94 3.44 1.72.76 3.22 1.93 3.56 3.41.44 1.88-.36 4-1.4 6.1A37.34 37.34 0 0 1 140 197.71a29 29 0 0 1-8.87 4l-.12.05a5.07 5.07 0 0 0-3.16 1.85 1.26 1.26 0 0 0-.16.33 2.7 2.7 0 0 0 .5 2.49 4.56 4.56 0 0 0 1.35 1.06h.07a31.58 31.58 0 0 0 8.22 2.86 32 32 0 0 1 5.11 1.27c.07.12.22.6.55 1.4.47 1.46.69 3.17 1.23 5a1.48 1.48 0 0 0 1.11 1 3.19 3.19 0 0 0 2-.16h.15c4.44-.77 8.87-1.45 12.94-.44 4.27 1.11 8 4.05 12.16 6.57 2.77 1.75 6 3.45 9.69 3.58a66 66 0 0 0 8.23-.2h.05a14.82 14.82 0 0 0 6.47-2.21l.08-.05c4.4-2.49 8.3-5.49 12.58-7.37a20.48 20.48 0 0 1 5-.59h.06a65.07 65.07 0 0 1 10.62.54 1.09 1.09 0 0 0 .36 0 2 2 0 0 0 1.21-.67 1.81 1.81 0 0 0 .37-.75c.1-.36.2-.53 0-.24a1.2 1.2 0 0 0 .13-.28c.64-2.12 1-4 2-5.23a3.14 3.14 0 0 1 2.19-.67h.2a39.12 39.12 0 0 0 8.45-2.38h.09a7.28 7.28 0 0 0 3.42-2.28 2.42 2.42 0 0 0-.49-3.49z" class="cls-2"/></symbol></svg>